<svg width="360" height="360" viewBox="0 0 360 360" fill="none" xmlns="http://www.w3.org/2000/svg">
  <g id="Theme=Light">
    <g id="Group">
      <path id="Vector" d="M180 179.999C158.558 176.927 136.708 178.425 115.886 184.397C95.0645 190.368 75.7415 200.677 59.1865 214.646" stroke="#0B2430" stroke-width="18.48" stroke-linecap="round" stroke-linejoin="round"/>
      <path id="Vector_2" d="M180 180C183.072 201.442 181.574 223.292 175.602 244.114C169.631 264.935 159.322 284.258 145.353 300.813" stroke="#0B2430" stroke-width="18.48" stroke-linecap="round" stroke-linejoin="round"/>
      <path id="Vector_3" d="M59.1865 214.646C65.0632 235.138 76.0551 253.797 91.1286 268.871C106.202 283.944 124.862 294.936 145.353 300.813" stroke="#0B2430" stroke-width="18.48" stroke-linecap="round" stroke-linejoin="round"/>
    </g>
    <g id="Group_2">
      <path id="Vector_4" d="M180 179.999C183.072 158.557 181.574 136.707 175.602 115.886C169.631 95.0638 159.322 75.7407 145.353 59.1858" stroke="#0B2430" stroke-width="18.48" stroke-linecap="round" stroke-linejoin="round"/>
      <path id="Vector_5" d="M180 180C158.558 183.072 136.708 181.574 115.886 175.602C95.0645 169.631 75.7415 159.322 59.1866 145.353" stroke="#0B2430" stroke-width="18.48" stroke-linecap="round" stroke-linejoin="round"/>
      <path id="Vector_6" d="M145.353 59.1855C124.862 65.0622 106.202 76.0541 91.1284 91.1276C76.0549 106.201 65.063 124.861 59.1863 145.352" stroke="#0B2430" stroke-width="18.48" stroke-linecap="round" stroke-linejoin="round"/>
    </g>
    <g id="Group_3">
      <path id="Vector_7" d="M180 180.001C201.442 183.073 223.292 181.575 244.114 175.603C264.936 169.632 284.259 159.323 300.813 145.354" stroke="#0B2430" stroke-width="18.48" stroke-linecap="round" stroke-linejoin="round"/>
      <path id="Vector_8" d="M180 180C176.928 158.558 178.426 136.708 184.398 115.886C190.369 95.0645 200.678 75.7415 214.647 59.1866" stroke="#0B2430" stroke-width="18.48" stroke-linecap="round" stroke-linejoin="round"/>
      <path id="Vector_9" d="M300.813 145.354C294.937 124.862 283.945 106.203 268.871 91.1291C253.798 76.0556 235.138 65.0637 214.647 59.1871" stroke="#0B2430" stroke-width="18.48" stroke-linecap="round" stroke-linejoin="round"/>
    </g>
    <g id="Group_4">
      <path id="Vector_10" d="M180 180.001C176.928 201.443 178.426 223.293 184.398 244.114C190.369 264.936 200.678 284.259 214.647 300.814" stroke="#0B2430" stroke-width="18.48" stroke-linecap="round" stroke-linejoin="round"/>
      <path id="Vector_11" d="M180 180C201.442 176.928 223.292 178.426 244.114 184.398C264.935 190.369 284.258 200.678 300.813 214.647" stroke="#0B2430" stroke-width="18.48" stroke-linecap="round" stroke-linejoin="round"/>
      <path id="Vector_12" d="M214.647 300.814C235.138 294.938 253.798 283.946 268.871 268.872C283.945 253.799 294.937 235.139 300.813 214.648" stroke="#0B2430" stroke-width="18.48" stroke-linecap="round" stroke-linejoin="round"/>
    </g>
    <path id="Vector_13" d="M180 186.68C183.689 186.68 186.68 183.689 186.68 180C186.68 176.311 183.689 173.32 180 173.32C176.311 173.32 173.32 176.311 173.32 180C173.32 183.689 176.311 186.68 180 186.68Z" fill="#0B2430"/>
  </g>
</svg>
