<svg width="1040" height="240" viewBox="0 0 1040 240" fill="none" xmlns="http://www.w3.org/2000/svg">
<g id="Layout=Horizontal, Color=Official Primary">
<g id="&#231;&#153;&#189;&#233;&#185;&#191;&#232;&#161;&#140; / Logo / Symbol">
<g id="Group">
<path id="Vector" d="M115 120C103.683 118.379 92.1517 119.17 81.1623 122.321C70.173 125.473 59.9748 130.913 51.2374 138.286" stroke="#0B2430" stroke-width="18.48" stroke-linecap="round" stroke-linejoin="round"/>
<path id="Vector_2" d="M115 120C116.622 131.317 115.831 142.848 112.679 153.838C109.528 164.827 104.087 175.025 96.7141 183.763" stroke="#0B2430" stroke-width="18.48" stroke-linecap="round" stroke-linejoin="round"/>
<path id="Vector_3" d="M51.2373 138.287C54.3389 149.102 60.1402 158.95 68.0956 166.906C76.0511 174.861 85.8993 180.662 96.714 183.764" stroke="#0B2430" stroke-width="18.48" stroke-linecap="round" stroke-linejoin="round"/>
</g>
<g id="Group_2">
<path id="Vector_4" d="M115 120C116.621 108.683 115.83 97.1517 112.679 86.1623C109.527 75.173 104.087 64.9748 96.714 56.2374" stroke="#0B2430" stroke-width="18.48" stroke-linecap="round" stroke-linejoin="round"/>
<path id="Vector_5" d="M115 120C103.683 121.622 92.1516 120.831 81.1623 117.679C70.1729 114.528 59.9747 109.087 51.2373 101.714" stroke="#0B2430" stroke-width="18.48" stroke-linecap="round" stroke-linejoin="round"/>
<path id="Vector_6" d="M96.7139 56.2383C85.8991 59.3398 76.0509 65.1411 68.0954 73.0966C60.14 81.0521 54.3387 90.9003 51.2371 101.715" stroke="#0B2430" stroke-width="18.48" stroke-linecap="round" stroke-linejoin="round"/>
</g>
<g id="Group_3">
<path id="Vector_7" d="M115 120C126.317 121.621 137.848 120.83 148.838 117.679C159.827 114.527 170.025 109.087 178.763 101.714" stroke="#0B2430" stroke-width="18.48" stroke-linecap="round" stroke-linejoin="round"/>
<path id="Vector_8" d="M115 120C113.378 108.683 114.169 97.1516 117.321 86.1623C120.472 75.1729 125.913 64.9747 133.286 56.2373" stroke="#0B2430" stroke-width="18.48" stroke-linecap="round" stroke-linejoin="round"/>
<path id="Vector_9" d="M178.763 101.713C175.661 90.8981 169.86 81.0499 161.904 73.0945C153.949 65.139 144.101 59.3377 133.286 56.2362" stroke="#0B2430" stroke-width="18.48" stroke-linecap="round" stroke-linejoin="round"/>
</g>
<g id="Group_4">
<path id="Vector_10" d="M115 120C113.379 131.317 114.17 142.848 117.321 153.838C120.473 164.827 125.913 175.025 133.286 183.763" stroke="#0B2430" stroke-width="18.48" stroke-linecap="round" stroke-linejoin="round"/>
<path id="Vector_11" d="M115 120C126.317 118.378 137.848 119.169 148.838 122.321C159.827 125.472 170.025 130.913 178.763 138.286" stroke="#0B2430" stroke-width="18.48" stroke-linecap="round" stroke-linejoin="round"/>
<path id="Vector_12" d="M133.286 183.762C144.101 180.66 153.949 174.859 161.905 166.903C169.86 158.948 175.661 149.1 178.763 138.285" stroke="#0B2430" stroke-width="18.48" stroke-linecap="round" stroke-linejoin="round"/>
</g>
<path id="Vector_13" d="M115 123.525C116.947 123.525 118.525 121.947 118.525 120C118.525 118.053 116.947 116.475 115 116.475C113.053 116.475 111.475 118.053 111.475 120C111.475 121.947 113.053 123.525 115 123.525Z" fill="#0B2430"/>
</g>
<path id="&#231;&#153;&#189;&#233;&#185;&#191;&#232;&#161;&#140;" d="M260.212 116.552H307.408V125.748H260.212V116.552ZM260.06 93.296H307.408V102.34H260.06V93.296ZM255.348 70.496H312.88V130.612H303.152V79.768H264.544V130.688H255.348V70.496ZM277.616 59.096L289.548 60.692C288.383 63.5293 287.141 66.2907 285.824 68.976C284.507 71.6613 283.316 73.9667 282.252 75.892L273.208 74.068C273.765 72.5987 274.323 71.0027 274.88 69.28C275.488 67.5573 276.02 65.8093 276.476 64.036C276.983 62.2627 277.363 60.616 277.616 59.096ZM347.992 71.56H356.428V94.74H347.992V71.56ZM365.852 71.56H374.44V94.664H365.852V71.56ZM347.232 106.444H364.484V113.664H347.232V106.444ZM387.36 102.34L393.896 108.344C391.971 109.357 389.893 110.295 387.664 111.156C385.435 111.967 383.155 112.752 380.824 113.512C378.544 114.221 376.315 114.829 374.136 115.336C373.933 114.525 373.553 113.512 372.996 112.296C372.489 111.08 372.008 110.041 371.552 109.18C373.477 108.623 375.403 107.989 377.328 107.28C379.304 106.52 381.153 105.735 382.876 104.924C384.649 104.063 386.144 103.201 387.36 102.34ZM367.448 100.896H376.188V119.364C376.188 120.529 376.34 121.264 376.644 121.568C376.948 121.872 377.683 122.024 378.848 122.024C379.152 122.024 379.583 122.024 380.14 122.024C380.697 122.024 381.331 122.024 382.04 122.024C382.749 122.024 383.408 122.024 384.016 122.024C384.675 122.024 385.156 122.024 385.46 122.024C386.169 122.024 386.701 121.847 387.056 121.492C387.411 121.137 387.664 120.428 387.816 119.364C387.968 118.3 388.069 116.704 388.12 114.576C388.981 115.235 390.172 115.868 391.692 116.476C393.212 117.033 394.555 117.439 395.72 117.692C395.467 120.783 394.985 123.189 394.276 124.912C393.617 126.635 392.655 127.825 391.388 128.484C390.121 129.193 388.449 129.548 386.372 129.548C386.068 129.548 385.612 129.548 385.004 129.548C384.396 129.548 383.737 129.548 383.028 129.548C382.319 129.548 381.584 129.548 380.824 129.548C380.115 129.548 379.456 129.548 378.848 129.548C378.291 129.548 377.835 129.548 377.48 129.548C374.795 129.548 372.717 129.244 371.248 128.636C369.779 128.028 368.765 126.964 368.208 125.444C367.701 123.975 367.448 121.999 367.448 119.516V100.896ZM336.364 78.476H392.148V99.3H336.364V92.08H383.484V85.772H336.364V78.476ZM334.768 64.948H394.124V72.852H334.768V64.948ZM330.512 64.948H339.176V86.988C339.176 90.1293 339.075 93.5747 338.872 97.324C338.669 101.023 338.289 104.848 337.732 108.8C337.175 112.701 336.339 116.476 335.224 120.124C334.16 123.772 332.767 127.065 331.044 130.004C330.537 129.497 329.828 128.915 328.916 128.256C328.004 127.597 327.067 126.964 326.104 126.356C325.141 125.799 324.305 125.368 323.596 125.064C325.217 122.328 326.484 119.364 327.396 116.172C328.308 112.929 328.992 109.611 329.448 106.216C329.904 102.821 330.183 99.4773 330.284 96.184C330.436 92.8907 330.512 89.8253 330.512 86.988V64.948ZM356.504 60.768L365.624 58.716C366.384 60.084 367.093 61.6293 367.752 63.352C368.411 65.024 368.892 66.5187 369.196 67.836L359.696 70.268C359.493 69.0013 359.088 67.4813 358.48 65.708C357.872 63.884 357.213 62.2373 356.504 60.768ZM341.76 130.916L341.456 124.532L345.332 121.948L364.94 119.972C364.94 121.036 364.94 122.252 364.94 123.62C364.991 124.988 365.067 126.128 365.168 127.04C360.557 127.597 356.833 128.053 353.996 128.408C351.159 128.813 348.929 129.143 347.308 129.396C345.687 129.7 344.471 129.953 343.66 130.156C342.9 130.409 342.267 130.663 341.76 130.916ZM341.76 130.916C341.659 130.207 341.456 129.396 341.152 128.484C340.848 127.572 340.493 126.66 340.088 125.748C339.733 124.836 339.379 124.076 339.024 123.468C339.885 123.164 340.772 122.683 341.684 122.024C342.596 121.315 343.052 120.2 343.052 118.68V100.972H351.64V124.76C351.64 124.76 351.311 124.861 350.652 125.064C349.993 125.317 349.157 125.672 348.144 126.128C347.181 126.584 346.193 127.065 345.18 127.572C344.217 128.129 343.407 128.687 342.748 129.244C342.089 129.852 341.76 130.409 341.76 130.916ZM431.972 63.732H469.06V72.472H431.972V63.732ZM451.2 87.444H460.548V120.276C460.548 122.657 460.244 124.532 459.636 125.9C459.079 127.319 457.964 128.383 456.292 129.092C454.62 129.751 452.568 130.156 450.136 130.308C447.704 130.511 444.791 130.612 441.396 130.612C441.193 129.295 440.813 127.724 440.256 125.9C439.749 124.127 439.192 122.607 438.584 121.34C440.053 121.391 441.523 121.441 442.992 121.492C444.461 121.543 445.779 121.568 446.944 121.568C448.109 121.517 448.92 121.492 449.376 121.492C450.085 121.492 450.567 121.391 450.82 121.188C451.073 120.935 451.2 120.555 451.2 120.048V87.444ZM428.704 84.86H471.036V93.524H428.704V84.86ZM411.604 93.828L419.584 85.772L420.724 86.228V130.916H411.604V93.828ZM420.192 75.968L428.856 79.312C426.88 82.656 424.575 86.0253 421.94 89.42C419.356 92.764 416.62 95.9307 413.732 98.92C410.895 101.909 408.108 104.519 405.372 106.748C404.967 106.089 404.384 105.279 403.624 104.316C402.864 103.303 402.079 102.289 401.268 101.276C400.508 100.263 399.799 99.452 399.14 98.844C401.775 97.02 404.384 94.892 406.968 92.46C409.552 89.9773 411.984 87.3427 414.264 84.556C416.544 81.7187 418.52 78.856 420.192 75.968ZM417.304 59.4L426.12 63.048C424.245 65.4293 422.143 67.8613 419.812 70.344C417.481 72.776 415.049 75.1067 412.516 77.336C409.983 79.5653 407.5 81.516 405.068 83.188C404.713 82.4787 404.232 81.668 403.624 80.756C403.016 79.7933 402.383 78.856 401.724 77.944C401.116 77.032 400.533 76.272 399.976 75.664C402.104 74.3467 404.257 72.7507 406.436 70.876C408.615 69.0013 410.667 67.076 412.592 65.1C414.517 63.0733 416.088 61.1733 417.304 59.4Z" fill="#0B2430"/>
<path id="BAILUXING DATA TECHNOLOGY" d="M251.722 169V151.545H258.403C259.665 151.545 260.713 151.744 261.548 152.142C262.389 152.534 263.017 153.071 263.432 153.753C263.852 154.435 264.062 155.207 264.062 156.071C264.062 156.781 263.926 157.389 263.653 157.895C263.381 158.395 263.014 158.801 262.554 159.114C262.094 159.426 261.58 159.651 261.011 159.787V159.957C261.631 159.991 262.224 160.182 262.793 160.528C263.366 160.869 263.835 161.352 264.199 161.977C264.563 162.602 264.744 163.358 264.744 164.244C264.744 165.148 264.526 165.96 264.088 166.682C263.651 167.398 262.991 167.963 262.111 168.378C261.23 168.793 260.122 169 258.787 169H251.722ZM254.884 166.358H258.284C259.432 166.358 260.259 166.139 260.764 165.702C261.276 165.259 261.531 164.69 261.531 163.997C261.531 163.48 261.403 163.014 261.148 162.599C260.892 162.179 260.528 161.849 260.057 161.611C259.585 161.366 259.023 161.244 258.369 161.244H254.884V166.358ZM254.884 158.969H258.011C258.557 158.969 259.048 158.869 259.486 158.67C259.923 158.466 260.267 158.179 260.517 157.81C260.773 157.435 260.901 156.991 260.901 156.48C260.901 155.804 260.662 155.247 260.185 154.81C259.713 154.372 259.011 154.153 258.08 154.153H254.884V158.969ZM270.697 169H267.322L273.466 151.545H277.37L283.523 169H280.148L275.486 155.125H275.35L270.697 169ZM270.807 162.156H280.012V164.696H270.807V162.156ZM289.944 151.545V169H286.782V151.545H289.944ZM294.328 169V151.545H297.49V166.349H305.178V169H294.328ZM319.885 151.545H323.047V162.949C323.047 164.199 322.751 165.298 322.16 166.247C321.575 167.196 320.751 167.937 319.689 168.472C318.626 169 317.385 169.264 315.964 169.264C314.538 169.264 313.294 169 312.231 168.472C311.169 167.937 310.345 167.196 309.76 166.247C309.175 165.298 308.882 164.199 308.882 162.949V151.545H312.044V162.685C312.044 163.412 312.203 164.06 312.521 164.628C312.845 165.196 313.3 165.642 313.885 165.966C314.47 166.284 315.163 166.443 315.964 166.443C316.765 166.443 317.459 166.284 318.044 165.966C318.635 165.642 319.089 165.196 319.407 164.628C319.726 164.06 319.885 163.412 319.885 162.685V151.545ZM330.086 151.545L333.929 157.938H334.066L337.926 151.545H341.532L336.154 160.273L341.617 169H337.952L334.066 162.651H333.929L330.043 169H326.395L331.909 160.273L326.463 151.545H330.086ZM348.136 151.545V169H344.974V151.545H348.136ZM366.863 151.545V169H364.051L355.827 157.111H355.682V169H352.52V151.545H355.349L363.565 163.443H363.719V151.545H366.863ZM382.962 157.119C382.82 156.659 382.624 156.247 382.374 155.884C382.13 155.514 381.834 155.199 381.488 154.938C381.147 154.676 380.755 154.48 380.311 154.349C379.868 154.213 379.385 154.145 378.863 154.145C377.925 154.145 377.09 154.381 376.357 154.852C375.624 155.324 375.047 156.017 374.627 156.932C374.212 157.841 374.005 158.949 374.005 160.256C374.005 161.574 374.212 162.69 374.627 163.605C375.042 164.52 375.618 165.216 376.357 165.693C377.095 166.165 377.953 166.401 378.931 166.401C379.817 166.401 380.584 166.23 381.232 165.889C381.885 165.548 382.388 165.065 382.74 164.44C383.093 163.81 383.269 163.071 383.269 162.224L383.985 162.335H379.246V159.864H386.328V161.96C386.328 163.455 386.01 164.747 385.374 165.838C384.738 166.929 383.863 167.77 382.749 168.361C381.635 168.946 380.357 169.239 378.914 169.239C377.306 169.239 375.894 168.878 374.678 168.156C373.468 167.429 372.522 166.398 371.84 165.062C371.164 163.722 370.826 162.131 370.826 160.29C370.826 158.881 371.024 157.622 371.422 156.514C371.826 155.406 372.388 154.466 373.11 153.693C373.831 152.915 374.678 152.324 375.649 151.92C376.621 151.511 377.678 151.307 378.82 151.307C379.786 151.307 380.686 151.449 381.522 151.733C382.357 152.011 383.098 152.409 383.746 152.926C384.399 153.443 384.936 154.057 385.357 154.767C385.777 155.477 386.053 156.261 386.184 157.119H382.962ZM403.174 169H397.259V151.545H403.293C405.026 151.545 406.515 151.895 407.759 152.594C409.009 153.287 409.969 154.284 410.64 155.585C411.31 156.886 411.645 158.443 411.645 160.256C411.645 162.074 411.307 163.636 410.631 164.943C409.961 166.25 408.992 167.253 407.725 167.952C406.464 168.651 404.947 169 403.174 169ZM400.421 166.264H403.02C404.236 166.264 405.251 166.043 406.063 165.599C406.876 165.151 407.486 164.483 407.895 163.597C408.305 162.705 408.509 161.591 408.509 160.256C408.509 158.92 408.305 157.812 407.895 156.932C407.486 156.045 406.881 155.384 406.08 154.946C405.285 154.503 404.296 154.281 403.114 154.281H400.421V166.264ZM416.914 169H413.539L419.684 151.545H423.587L429.74 169H426.365L421.703 155.125H421.567L416.914 169ZM417.024 162.156H426.229V164.696H417.024V162.156ZM430.123 154.196V151.545H444.049V154.196H438.654V169H435.518V154.196H430.123ZM447.826 169H444.451L450.596 151.545H454.499L460.653 169H457.278L452.616 155.125H452.479L447.826 169ZM447.937 162.156H457.141V164.696H447.937V162.156ZM470.058 154.196V151.545H483.984V154.196H478.589V169H475.453V154.196H470.058ZM487.628 169V151.545H498.981V154.196H490.79V158.935H498.393V161.585H490.79V166.349H499.049V169H487.628ZM518.107 157.435H514.919C514.829 156.912 514.661 156.449 514.417 156.045C514.172 155.636 513.868 155.29 513.505 155.006C513.141 154.722 512.726 154.509 512.26 154.366C511.8 154.219 511.303 154.145 510.769 154.145C509.82 154.145 508.979 154.384 508.246 154.861C507.513 155.332 506.939 156.026 506.525 156.94C506.11 157.849 505.902 158.96 505.902 160.273C505.902 161.608 506.11 162.733 506.525 163.648C506.945 164.557 507.519 165.244 508.246 165.71C508.979 166.17 509.817 166.401 510.76 166.401C511.283 166.401 511.772 166.332 512.226 166.196C512.686 166.054 513.098 165.847 513.462 165.574C513.831 165.301 514.141 164.966 514.391 164.568C514.647 164.17 514.823 163.716 514.919 163.205L518.107 163.222C517.988 164.051 517.729 164.83 517.331 165.557C516.939 166.284 516.425 166.926 515.789 167.483C515.152 168.034 514.408 168.466 513.556 168.778C512.704 169.085 511.757 169.239 510.718 169.239C509.184 169.239 507.814 168.884 506.61 168.173C505.405 167.463 504.456 166.438 503.763 165.097C503.07 163.756 502.723 162.148 502.723 160.273C502.723 158.392 503.073 156.784 503.772 155.449C504.471 154.108 505.422 153.082 506.627 152.372C507.831 151.662 509.195 151.307 510.718 151.307C511.689 151.307 512.593 151.443 513.428 151.716C514.263 151.989 515.007 152.389 515.661 152.918C516.314 153.44 516.851 154.082 517.272 154.844C517.698 155.599 517.976 156.463 518.107 157.435ZM521.963 169V151.545H525.124V158.935H533.213V151.545H536.383V169H533.213V161.585H525.124V169H521.963ZM555.126 151.545V169H552.313L544.089 157.111H543.944V169H540.782V151.545H543.611L551.827 163.443H551.981V151.545H555.126ZM575.128 160.273C575.128 162.153 574.775 163.764 574.071 165.105C573.372 166.44 572.417 167.463 571.207 168.173C570.003 168.884 568.636 169.239 567.108 169.239C565.579 169.239 564.21 168.884 563 168.173C561.795 167.457 560.841 166.432 560.136 165.097C559.437 163.756 559.088 162.148 559.088 160.273C559.088 158.392 559.437 156.784 560.136 155.449C560.841 154.108 561.795 153.082 563 152.372C564.21 151.662 565.579 151.307 567.108 151.307C568.636 151.307 570.003 151.662 571.207 152.372C572.417 153.082 573.372 154.108 574.071 155.449C574.775 156.784 575.128 158.392 575.128 160.273ZM571.949 160.273C571.949 158.949 571.741 157.832 571.326 156.923C570.917 156.009 570.349 155.318 569.622 154.852C568.895 154.381 568.057 154.145 567.108 154.145C566.159 154.145 565.321 154.381 564.593 154.852C563.866 155.318 563.295 156.009 562.88 156.923C562.471 157.832 562.267 158.949 562.267 160.273C562.267 161.597 562.471 162.716 562.88 163.631C563.295 164.54 563.866 165.23 564.593 165.702C565.321 166.168 566.159 166.401 567.108 166.401C568.057 166.401 568.895 166.168 569.622 165.702C570.349 165.23 570.917 164.54 571.326 163.631C571.741 162.716 571.949 161.597 571.949 160.273ZM579.077 169V151.545H582.239V166.349H589.926V169H579.077ZM608.548 160.273C608.548 162.153 608.195 163.764 607.491 165.105C606.792 166.44 605.837 167.463 604.627 168.173C603.423 168.884 602.056 169.239 600.528 169.239C598.999 169.239 597.63 168.884 596.42 168.173C595.215 167.457 594.261 166.432 593.556 165.097C592.857 163.756 592.508 162.148 592.508 160.273C592.508 158.392 592.857 156.784 593.556 155.449C594.261 154.108 595.215 153.082 596.42 152.372C597.63 151.662 598.999 151.307 600.528 151.307C602.056 151.307 603.423 151.662 604.627 152.372C605.837 153.082 606.792 154.108 607.491 155.449C608.195 156.784 608.548 158.392 608.548 160.273ZM605.369 160.273C605.369 158.949 605.161 157.832 604.746 156.923C604.337 156.009 603.769 155.318 603.042 154.852C602.315 154.381 601.477 154.145 600.528 154.145C599.579 154.145 598.741 154.381 598.013 154.852C597.286 155.318 596.715 156.009 596.3 156.923C595.891 157.832 595.687 158.949 595.687 160.273C595.687 161.597 595.891 162.716 596.3 163.631C596.715 164.54 597.286 165.23 598.013 165.702C598.741 166.168 599.579 166.401 600.528 166.401C601.477 166.401 602.315 166.168 603.042 165.702C603.769 165.23 604.337 164.54 604.746 163.631C605.161 162.716 605.369 161.597 605.369 160.273ZM624.19 157.119C624.048 156.659 623.852 156.247 623.602 155.884C623.358 155.514 623.062 155.199 622.716 154.938C622.375 154.676 621.983 154.48 621.54 154.349C621.096 154.213 620.613 154.145 620.091 154.145C619.153 154.145 618.318 154.381 617.585 154.852C616.852 155.324 616.275 156.017 615.855 156.932C615.44 157.841 615.233 158.949 615.233 160.256C615.233 161.574 615.44 162.69 615.855 163.605C616.27 164.52 616.846 165.216 617.585 165.693C618.324 166.165 619.182 166.401 620.159 166.401C621.045 166.401 621.812 166.23 622.46 165.889C623.113 165.548 623.616 165.065 623.968 164.44C624.321 163.81 624.497 163.071 624.497 162.224L625.213 162.335H620.474V159.864H627.557V161.96C627.557 163.455 627.238 164.747 626.602 165.838C625.966 166.929 625.091 167.77 623.977 168.361C622.863 168.946 621.585 169.239 620.142 169.239C618.534 169.239 617.122 168.878 615.906 168.156C614.696 167.429 613.75 166.398 613.068 165.062C612.392 163.722 612.054 162.131 612.054 160.29C612.054 158.881 612.253 157.622 612.65 156.514C613.054 155.406 613.616 154.466 614.338 153.693C615.059 152.915 615.906 152.324 616.878 151.92C617.849 151.511 618.906 151.307 620.048 151.307C621.014 151.307 621.915 151.449 622.75 151.733C623.585 152.011 624.326 152.409 624.974 152.926C625.628 153.443 626.165 154.057 626.585 154.767C627.005 155.477 627.281 156.261 627.412 157.119H624.19ZM629.725 151.545H633.296L637.566 159.267H637.736L642.006 151.545H645.577L639.228 162.489V169H636.074V162.489L629.725 151.545Z" fill="#0B2430"/>
</g>
</svg>

